<svg width="63.093" height="55.469" viewBox="0 0 63.093 55.469" xmlns="http://www.w3.org/2000/svg"><path d="M4.176.001A4.19 4.19 0 0 0 0 4.18v47.111a4.19 4.19 0 0 0 4.176 4.178h54.742a4.188 4.188 0 0 0 4.175-4.178V4.18A4.19 4.19 0 0 0 58.918.004L4.176.001z" fill="#fff"/><path d="M5.609 33.639C7.369 41.917 8.844 49.795 14 55.468H4.176A4.189 4.189 0 0 1 0 51.291V4.18A4.19 4.19 0 0 1 4.176.002h7.093a27.308 27.308 0 0 0-4.516 5.374C1.14 14.021 3.447 23.464 5.609 33.639zM58.918.001h-11.14c2.635 2.653 4.86 6.091 6.536 10.365l-16.918 3.591c-1.854-3.578-4.667-6.558-10.187-5.387-3.04.647-5.06 2.367-5.951 4.249-1.098 2.32-1.64 4.918.989 17.281 2.629 12.361 4.176 14.523 6.12 16.19 1.58 1.351 4.125 2.104 7.167 1.456 5.518-1.17 6.889-5.038 7.111-9.062l16.924-3.6c.398 8.814-2.311 15.642-7.093 20.384h6.444a4.188 4.188 0 0 0 4.173-4.178V4.18A4.19 4.19 0 0 0 58.918.001z" fill="#f47c00"/></svg>